<svg xmlns="http://www.w3.org/2000/svg" xmlns:xlink="http://www.w3.org/1999/xlink" width="500" zoomAndPan="magnify" viewBox="0 0 375 374.999991" height="500" preserveAspectRatio="xMidYMid meet" version="1.0"><defs><g/><clipPath id="dc943da2fb"><path d="M 281 182 L 283.457031 182 L 283.457031 206 L 281 206 Z M 281 182 " clip-rule="nonzero"/></clipPath><clipPath id="7129d2df4a"><path d="M 142 272 L 161 272 L 161 277.585938 L 142 277.585938 Z M 142 272 " clip-rule="nonzero"/></clipPath></defs><rect x="-37.5" width="450" fill="#ffffff" y="-37.499999" height="449.999989" fill-opacity="1"/><rect x="-37.5" width="450" fill="#ffffff" y="-37.499999" height="449.999989" fill-opacity="1"/><rect x="-37.5" width="450" fill="#000000" y="-37.499999" height="449.999989" fill-opacity="1"/><path fill="#ffa500" d="M 212.8125 94.695312 C 201.800781 92.460938 201.140625 92.328125 200.796875 91.726562 C 202.628906 90.417969 217.492188 94.441406 222.191406 96.839844 C 221.921875 96.859375 221.921875 96.859375 220.828125 96.5625 C 218.664062 95.980469 216.476562 95.4375 212.8125 94.695312 " fill-opacity="1" fill-rule="nonzero"/><path fill="#ffa500" d="M 221.429688 100.292969 C 212.101562 99.5625 208.5 97.296875 209.730469 96.355469 C 211.902344 94.691406 223.34375 97.632812 227.253906 99.992188 C 227.34375 100.058594 227.460938 100.15625 227.535156 100.238281 C 227.527344 100.28125 227.519531 100.34375 227.511719 100.390625 C 226.773438 100.710938 221.648438 100.3125 221.429688 100.292969 " fill-opacity="1" fill-rule="nonzero"/><path fill="#ffa500" d="M 232.496094 108.066406 C 227.082031 109.695312 220.757812 106.121094 221.929688 103.886719 C 223.214844 101.445312 231.148438 102.777344 234.441406 104.929688 C 236.785156 106.746094 232.671875 108.011719 232.496094 108.066406 " fill-opacity="1" fill-rule="nonzero"/><path fill="#ffa500" d="M 243.957031 116.546875 C 242.394531 119.929688 236.804688 117.945312 235.425781 114.355469 C 233.972656 110.578125 238.292969 108.769531 241.382812 110.113281 C 241.765625 110.28125 242.042969 110.472656 242.269531 110.628906 C 244.257812 112.234375 244.691406 114.953125 243.957031 116.546875 " fill-opacity="1" fill-rule="nonzero"/><path fill="#ffa500" d="M 254.652344 124.859375 C 255.324219 128.171875 253.703125 129.09375 251.773438 127.875 C 247.121094 124.9375 246.332031 116.339844 248.792969 116 C 249.1875 115.945312 249.566406 116.214844 249.84375 116.414062 C 251.617188 117.917969 254.027344 121.753906 254.652344 124.859375 " fill-opacity="1" fill-rule="nonzero"/><path fill="#ffa500" d="M 263.449219 132.125 C 265.257812 136.078125 265.082031 138.027344 263.875 137.570312 C 263.058594 137.257812 261.457031 135.582031 259.644531 131.890625 C 258.113281 128.773438 255.628906 121.925781 255.984375 121.492188 C 256.109375 121.492188 256.15625 121.519531 256.386719 121.691406 C 258.015625 123.167969 261.488281 127.851562 263.449219 132.125 " fill-opacity="1" fill-rule="nonzero"/><path fill="#ffa500" d="M 269.035156 137.3125 C 270.890625 140.621094 272.578125 144.449219 272.078125 144.863281 C 271.886719 144.808594 271.484375 144.6875 269.800781 141.796875 C 269.722656 141.660156 261.0625 126 260.976562 125.777344 L 261.089844 125.832031 C 261.890625 126.671875 265.769531 131.476562 269.035156 137.3125 " fill-opacity="1" fill-rule="nonzero"/><path fill="#ffa500" d="M 181.589844 91.464844 C 173.285156 92.222656 168.941406 92.226562 168.671875 91.480469 C 169.820312 89.421875 187.902344 88.601562 191.804688 89.953125 L 191.929688 90.035156 C 191.796875 90.273438 191.652344 90.542969 181.589844 91.464844 " fill-opacity="1" fill-rule="nonzero"/><path fill="#ffa500" d="M 192.847656 98.304688 C 184.078125 99.882812 176.777344 98.003906 178.445312 95.539062 C 180.707031 92.203125 194.929688 91.84375 199.53125 94.320312 C 202.546875 96.53125 192.945312 98.289062 192.847656 98.304688 " fill-opacity="1" fill-rule="nonzero"/><path fill="#ffa500" d="M 209.558594 109.652344 C 201.957031 112.757812 192.394531 108.722656 193.917969 104.398438 C 195.398438 100.191406 206.507812 99.148438 212.207031 102.683594 C 216.328125 105.835938 211.695312 108.785156 209.558594 109.652344 " fill-opacity="1" fill-rule="nonzero"/><path fill="#ffa500" d="M 228.335938 123.214844 C 222.824219 128.371094 212.863281 123.222656 213.410156 117.324219 C 213.882812 112.242188 222.308594 110.097656 227.71875 113.679688 C 231.738281 116.894531 230.5 121.191406 228.335938 123.214844 " fill-opacity="1" fill-rule="nonzero"/><path fill="#ffa500" d="M 246.800781 137.210938 C 244.4375 143.003906 236.808594 140.554688 234.3125 134.65625 C 231.558594 128.148438 236.742188 122.597656 241.820312 124.507812 C 242.527344 124.773438 243.074219 125.152344 243.511719 125.460938 C 247.621094 128.902344 247.902344 134.507812 246.800781 137.210938 " fill-opacity="1" fill-rule="nonzero"/><path fill="#ffa500" d="M 263.074219 150.207031 C 262.761719 155.542969 259.070312 156.816406 255.613281 152.78125 C 250.40625 146.695312 251.699219 135.453125 256.203125 135.964844 C 256.949219 136.050781 257.460938 136.417969 258.003906 136.8125 C 261.4375 139.871094 263.308594 146.148438 263.074219 150.207031 " fill-opacity="1" fill-rule="nonzero"/><path fill="#ffa500" d="M 275.257812 160.75 C 275.949219 166.097656 274.5625 168.894531 272.230469 166.859375 C 267.496094 162.726562 265.828125 146.019531 268.707031 146.074219 C 269.023438 146.078125 269.347656 146.324219 269.609375 146.523438 C 272.222656 149.121094 274.640625 155.972656 275.257812 160.75 " fill-opacity="1" fill-rule="nonzero"/><path fill="#ffa500" d="M 280.929688 166.769531 C 281.734375 170.613281 282.289062 175.050781 281.613281 175.703125 C 279.484375 175.519531 276.140625 153.191406 276.242188 152.976562 C 276.304688 153.003906 276.382812 153.042969 276.445312 153.070312 C 277.398438 154.390625 279.570312 160.246094 280.929688 166.769531 " fill-opacity="1" fill-rule="nonzero"/><path fill="#ffa500" d="M 151.1875 96.179688 C 141.09375 99.972656 140.085938 100.03125 139.703125 100.050781 L 139.675781 99.933594 C 139.90625 99.753906 140.125 99.601562 141.085938 99.132812 L 141.132812 99.109375 C 150.476562 95.015625 150.476562 95.015625 155.390625 93.511719 L 160.460938 92.109375 C 161.441406 91.867188 161.667969 91.84375 161.917969 91.832031 L 161.933594 91.925781 C 161.609375 92.125 161.074219 92.464844 151.1875 96.179688 " fill-opacity="1" fill-rule="nonzero"/><path fill="#ffa500" d="M 161.714844 101.855469 C 153.859375 105.109375 146.15625 105.21875 147.253906 102.054688 C 148.71875 97.835938 164.140625 92.847656 168.96875 95.035156 C 171.433594 96.789062 165.828125 100.148438 161.714844 101.855469 " fill-opacity="1" fill-rule="nonzero"/><path fill="#ffa500" d="M 179.894531 113.660156 C 171.835938 117.984375 160.664062 115.167969 162.566406 109.289062 C 164.28125 104 176.464844 99.992188 183.15625 103.867188 C 187.460938 107.105469 183.839844 111.542969 179.894531 113.660156 " fill-opacity="1" fill-rule="nonzero"/><path fill="#ffa500" d="M 203.234375 130.050781 C 196.214844 135.671875 183.585938 131.050781 184.46875 123.1875 C 185.171875 116.875 195.574219 112.757812 203.285156 117.695312 C 208.941406 122.136719 206.253906 127.628906 203.234375 130.050781 " fill-opacity="1" fill-rule="nonzero"/><path fill="#ffa500" d="M 227.402344 147.941406 C 222.222656 154.53125 210.820312 150.773438 209.457031 142.027344 C 208.253906 134.332031 217.164062 128.21875 225.210938 133.65625 C 230.835938 138.273438 229.878906 144.789062 227.402344 147.941406 " fill-opacity="1" fill-rule="nonzero"/><path fill="#ffa500" d="M 249.964844 165.472656 C 246.765625 172.378906 238.039062 170.851562 234.90625 162.835938 C 231.339844 153.71875 238.539062 145.804688 244.96875 148.941406 C 245.4375 149.171875 246.011719 149.570312 246.4375 149.867188 C 251.734375 154.453125 251.6875 161.75 249.964844 165.472656 " fill-opacity="1" fill-rule="nonzero"/><path fill="#ffa500" d="M 268.507812 180.792969 C 266.871094 187.34375 261.71875 188.558594 258.300781 183.195312 C 253.085938 175.011719 257.390625 162.164062 263.023438 163.699219 C 263.730469 163.890625 264.304688 164.3125 264.765625 164.652344 C 269.0625 168.6875 269.539062 176.667969 268.507812 180.792969 " fill-opacity="1" fill-rule="nonzero"/><path fill="#ffa500" d="M 280.296875 191.730469 C 279.535156 198.050781 277.171875 201.128906 275.136719 198.449219 C 271.359375 193.46875 273.117188 174.660156 277.253906 175.835938 C 277.484375 175.902344 277.742188 176.105469 277.929688 176.253906 C 280.503906 179.175781 280.863281 187.0625 280.296875 191.730469 " fill-opacity="1" fill-rule="nonzero"/><g clip-path="url(#dc943da2fb)"><path fill="#ffa500" d="M 282.050781 205.027344 C 281.941406 205.613281 281.878906 205.785156 281.816406 205.953125 L 281.699219 205.960938 C 281.296875 204.164062 282.703125 183.886719 283.121094 182.316406 L 283.207031 182.300781 C 283.273438 182.570312 283.292969 182.695312 283.339844 183.535156 L 283.457031 189.003906 C 283 199.199219 283 199.199219 282.179688 204.28125 L 282.121094 204.617188 C 282.101562 204.738281 282.074219 204.902344 282.050781 205.027344 " fill-opacity="1" fill-rule="nonzero"/></g><path fill="#ffa500" d="M 132.589844 111.667969 C 125.824219 116.574219 119.609375 118.683594 120.277344 115.84375 C 121.21875 111.847656 135.683594 101.332031 140.015625 102.585938 C 141.925781 103.886719 136.476562 108.847656 132.589844 111.667969 " fill-opacity="1" fill-rule="nonzero"/><path fill="#ffa500" d="M 148.953125 121.609375 C 141.1875 127.519531 131.582031 126.863281 132.640625 120.496094 C 133.734375 113.949219 146.117188 106.324219 152.71875 109.769531 C 156.847656 112.820312 153.003906 118.53125 148.953125 121.609375 " fill-opacity="1" fill-rule="nonzero"/><path fill="#ffa500" d="M 173.246094 138.105469 C 165.261719 145.015625 152.121094 140.890625 153.164062 131.800781 C 154.039062 124.136719 165.128906 118.359375 173.554688 123.515625 C 179.9375 128.425781 176.753906 135.066406 173.246094 138.105469 " fill-opacity="1" fill-rule="nonzero"/><path fill="#ffa500" d="M 200.539062 157.808594 C 193.316406 165.410156 179.914062 160.601562 179.757812 150.351562 C 179.628906 142 190.148438 135.742188 199.0625 141.59375 C 205.660156 146.910156 203.894531 154.273438 200.539062 157.808594 " fill-opacity="1" fill-rule="nonzero"/><path fill="#ffa500" d="M 251.027344 197.046875 C 246.230469 205.09375 236.40625 203.050781 234.34375 193.578125 C 232.152344 183.523438 240.738281 174.429688 248.058594 179.054688 C 248.304688 179.214844 248.613281 179.457031 248.851562 179.628906 C 254.488281 184.707031 253.515625 192.871094 251.027344 197.046875 " fill-opacity="1" fill-rule="nonzero"/><path fill="#ffa500" d="M 107.066406 130.519531 C 104.390625 134.050781 99.632812 139.894531 98.792969 139.398438 C 98.707031 138.976562 98.949219 138.027344 101.425781 134.179688 L 104.984375 129.078125 L 109.726562 123.179688 C 113.003906 119.433594 113.667969 119.304688 113.949219 119.246094 L 114.0625 119.3125 C 114.304688 120.558594 109.78125 126.941406 107.066406 130.519531 " fill-opacity="1" fill-rule="nonzero"/><path fill="#ffa500" d="M 119.515625 137.230469 C 113.867188 144.167969 107.125 146.203125 106.632812 141.113281 C 105.972656 134.316406 117.101562 120.84375 123.0625 123.382812 C 126.40625 125.816406 123 132.945312 119.515625 137.230469 " fill-opacity="1" fill-rule="nonzero"/><path fill="#ffa500" d="M 141.007812 151.191406 C 134.128906 159.085938 123.207031 157.4375 123.03125 148.476562 C 122.859375 139.652344 133.445312 130.289062 141.394531 134.800781 C 147.160156 139.183594 144.640625 147.023438 141.007812 151.191406 " fill-opacity="1" fill-rule="nonzero"/><path fill="#ffa500" d="M 168.605469 170.566406 C 161.167969 178.832031 148.015625 174.695312 147.601562 163.957031 C 147.234375 154.539062 157.988281 146.714844 167.410156 152.667969 C 174.765625 158.496094 172.046875 166.738281 168.605469 170.566406 " fill-opacity="1" fill-rule="nonzero"/><path fill="#ffa500" d="M 197.179688 191.71875 C 189.664062 199.992188 176.300781 195.304688 175.84375 184.234375 C 175.441406 174.609375 186.238281 166.9375 195.746094 173.296875 C 203.296875 179.554688 200.632812 187.917969 197.179688 191.71875 " fill-opacity="1" fill-rule="nonzero"/><path fill="#ffa500" d="M 97.480469 160.964844 C 95.078125 167.125 91.585938 171.847656 90.417969 168.777344 C 88.632812 164.089844 94.671875 145.644531 99.046875 146.703125 C 101.214844 148.214844 99.4375 155.953125 97.480469 160.964844 " fill-opacity="1" fill-rule="nonzero"/><path fill="#ffa500" d="M 113.605469 170.765625 C 109.902344 178.066406 103.652344 179.613281 101.445312 173.773438 C 98.257812 165.34375 105.683594 151.546875 112.042969 154.09375 C 112.25 154.175781 112.507812 154.328125 112.703125 154.425781 C 117.304688 157.855469 116 166.046875 113.605469 170.765625 " fill-opacity="1" fill-rule="nonzero"/><path fill="#ffa500" d="M 137.542969 187.019531 C 132.15625 194.957031 121.917969 192.824219 119.871094 183.34375 C 117.957031 174.464844 125.644531 163.480469 135.105469 169.210938 C 141.675781 174.292969 140.484375 182.683594 137.542969 187.019531 " fill-opacity="1" fill-rule="nonzero"/><path fill="#ffa500" d="M 164.4375 206.4375 C 157.3125 214.542969 144.96875 209.648438 144.730469 198.617188 C 144.53125 189.582031 153.707031 182.898438 162.53125 188.644531 C 169.597656 194.375 167.902344 202.5 164.4375 206.4375 " fill-opacity="1" fill-rule="nonzero"/><path fill="#ffa500" d="M 87.769531 186.808594 C 87.4375 193.355469 86.996094 196.789062 86.460938 197.011719 C 84.6875 195.941406 85.40625 173.917969 87.238281 173.210938 C 88.371094 173.894531 87.878906 184.660156 87.769531 186.808594 " fill-opacity="1" fill-rule="nonzero"/><path fill="#ffa500" d="M 97.878906 192.261719 C 96.996094 197.890625 94.773438 202.132812 92.585938 199.488281 C 88.464844 194.507812 89.921875 176.800781 94.460938 176.660156 C 94.734375 176.652344 95.089844 176.785156 95.34375 176.890625 C 98.230469 178.980469 98.804688 186.371094 97.878906 192.261719 " fill-opacity="1" fill-rule="nonzero"/><path fill="#ffa500" d="M 115.335938 203.601562 C 113.035156 210.132812 107.261719 212 104.0625 204.777344 C 99.933594 195.453125 104.425781 183.589844 110.929688 186.640625 C 111.152344 186.746094 111.433594 186.921875 111.652344 187.046875 C 116.835938 190.976562 116.925781 199.09375 115.335938 203.601562 " fill-opacity="1" fill-rule="nonzero"/><path fill="#ffa500" d="M 93.710938 215.449219 C 94.863281 221.671875 95.074219 224.679688 94.34375 224.386719 C 91.351562 223.183594 86.414062 201.796875 89.058594 201.5 C 89.125 201.488281 89.214844 201.527344 89.28125 201.539062 C 91.203125 202.878906 93.019531 211.714844 93.710938 215.449219 " fill-opacity="1" fill-rule="nonzero"/><path fill="#ffa500" d="M 104.308594 221.890625 C 104.390625 225.269531 103.878906 230.429688 101.410156 228.316406 C 96.996094 224.535156 93.429688 207.742188 97.972656 206.882812 C 98.464844 206.789062 98.921875 207.015625 99.292969 207.199219 C 102.546875 209.625 104.171875 216.511719 104.308594 221.890625 " fill-opacity="1" fill-rule="nonzero"/><path fill="#ffa500" d="M 120.035156 232.570312 C 118.5625 237.902344 114.554688 239.480469 111.15625 233.222656 C 106.78125 225.15625 108.75 215.351562 114.355469 217.328125 C 114.789062 217.484375 115.320312 217.796875 115.714844 218.035156 C 120.753906 221.933594 121.0625 228.863281 120.035156 232.570312 " fill-opacity="1" fill-rule="nonzero"/><path fill="#ffa500" d="M 137.707031 245.332031 C 133.527344 250.59375 126.023438 248.5625 125.320312 239.910156 C 124.78125 233.25 129.777344 228.355469 135.820312 232.285156 C 140.488281 236.070312 140.445312 241.890625 137.707031 245.332031 " fill-opacity="1" fill-rule="nonzero"/><path fill="#ffa500" d="M 105.71875 242.550781 C 109 249.609375 109 249.609375 109.039062 249.914062 C 108.996094 249.925781 108.941406 249.9375 108.902344 249.949219 C 104.878906 246.96875 96.011719 229.855469 98.585938 230.046875 C 98.65625 230.050781 98.738281 230.101562 98.804688 230.125 C 100.535156 231.390625 102.9375 236.5625 105.71875 242.550781 " fill-opacity="1" fill-rule="nonzero"/><path fill="#ffa500" d="M 113.722656 247.746094 C 115.160156 253.871094 114.175781 253.242188 113.851562 253.03125 C 110.507812 250.886719 103.601562 236.078125 106.875 235.480469 C 107.222656 235.417969 107.621094 235.636719 107.910156 235.796875 C 111.304688 238.386719 113.21875 245.601562 113.722656 247.746094 " fill-opacity="1" fill-rule="nonzero"/><path fill="#ffa500" d="M 123.996094 254.960938 C 123.632812 256.425781 122.214844 260.8125 119.179688 255.785156 C 115.644531 249.933594 115.769531 243.335938 119.398438 244.019531 C 119.953125 244.121094 120.460938 244.441406 120.835938 244.671875 C 124.109375 247.28125 124.769531 251.835938 123.996094 254.960938 " fill-opacity="1" fill-rule="nonzero"/><path fill="#ffa500" d="M 134.632812 262.835938 C 130.441406 265.640625 125.929688 263.699219 127.226562 257.945312 C 127.996094 254.53125 131.265625 252.5 134.910156 254.917969 C 138.125 257.605469 137.292969 261.054688 134.632812 262.835938 " fill-opacity="1" fill-rule="nonzero"/><path fill="#ffa500" d="M 144.566406 270.554688 C 142.648438 270.738281 132.863281 270.425781 136.078125 266.769531 C 138.328125 264.214844 144.296875 262.382812 148.535156 265.324219 C 151.425781 267.894531 148.761719 270.140625 144.566406 270.554688 " fill-opacity="1" fill-rule="nonzero"/><g clip-path="url(#7129d2df4a)"><path fill="#ffa500" d="M 152.726562 277.296875 C 148.03125 276.699219 141.292969 274.5625 142.21875 273.710938 C 143.066406 272.921875 155.714844 271.488281 160.300781 274.8125 C 162.199219 276.683594 159.089844 277.457031 156.535156 277.519531 C 155.40625 277.546875 154.125 277.472656 152.726562 277.296875 " fill-opacity="1" fill-rule="nonzero"/></g><g fill="#ffffff" fill-opacity="1"><g transform="translate(138.812028, 232.29022)"><g><path d="M 11.171875 -12.734375 C 11.171875 -12.628906 11.140625 -12.546875 11.078125 -12.484375 C 11.023438 -12.421875 10.941406 -12.390625 10.828125 -12.390625 L 5.21875 -12.390625 C 5.125 -12.390625 5.078125 -12.347656 5.078125 -12.265625 L 5.078125 -10.09375 C 5.078125 -10 5.125 -9.953125 5.21875 -9.953125 L 8.46875 -9.953125 C 8.570312 -9.953125 8.65625 -9.921875 8.71875 -9.859375 C 8.78125 -9.804688 8.8125 -9.722656 8.8125 -9.609375 L 8.8125 -6.625 C 8.8125 -6.519531 8.78125 -6.4375 8.71875 -6.375 C 8.65625 -6.3125 8.570312 -6.28125 8.46875 -6.28125 L 5.21875 -6.28125 C 5.125 -6.28125 5.078125 -6.234375 5.078125 -6.140625 L 5.078125 -3.84375 C 5.078125 -3.75 5.125 -3.703125 5.21875 -3.703125 L 10.828125 -3.703125 C 10.941406 -3.703125 11.023438 -3.671875 11.078125 -3.609375 C 11.140625 -3.546875 11.171875 -3.460938 11.171875 -3.359375 L 11.171875 -0.34375 C 11.171875 -0.238281 11.140625 -0.15625 11.078125 -0.09375 C 11.023438 -0.03125 10.941406 0 10.828125 0 L 1.109375 0 C 0.992188 0 0.90625 -0.03125 0.84375 -0.09375 C 0.789062 -0.15625 0.765625 -0.238281 0.765625 -0.34375 L 0.765625 -15.75 C 0.765625 -15.863281 0.789062 -15.945312 0.84375 -16 C 0.90625 -16.0625 0.992188 -16.09375 1.109375 -16.09375 L 10.828125 -16.09375 C 10.941406 -16.09375 11.023438 -16.0625 11.078125 -16 C 11.140625 -15.945312 11.171875 -15.863281 11.171875 -15.75 Z M 11.171875 -12.734375 "/></g></g></g><g fill="#ffffff" fill-opacity="1"><g transform="translate(150.469105, 232.29022)"><g><path d="M 1.109375 0 C 0.992188 0 0.90625 -0.03125 0.84375 -0.09375 C 0.789062 -0.15625 0.765625 -0.238281 0.765625 -0.34375 L 0.765625 -15.75 C 0.765625 -15.863281 0.789062 -15.945312 0.84375 -16 C 0.90625 -16.0625 0.992188 -16.09375 1.109375 -16.09375 L 4.734375 -16.09375 C 4.847656 -16.09375 4.929688 -16.0625 4.984375 -16 C 5.046875 -15.945312 5.078125 -15.863281 5.078125 -15.75 L 5.078125 -3.84375 C 5.078125 -3.75 5.125 -3.703125 5.21875 -3.703125 L 11 -3.703125 C 11.101562 -3.703125 11.1875 -3.671875 11.25 -3.609375 C 11.3125 -3.546875 11.34375 -3.460938 11.34375 -3.359375 L 11.34375 -0.34375 C 11.34375 -0.238281 11.3125 -0.15625 11.25 -0.09375 C 11.1875 -0.03125 11.101562 0 11 0 Z M 1.109375 0 "/></g></g></g><g fill="#ffffff" fill-opacity="1"><g transform="translate(162.195155, 232.29022)"><g><path d="M 11.171875 -12.734375 C 11.171875 -12.628906 11.140625 -12.546875 11.078125 -12.484375 C 11.023438 -12.421875 10.941406 -12.390625 10.828125 -12.390625 L 5.21875 -12.390625 C 5.125 -12.390625 5.078125 -12.347656 5.078125 -12.265625 L 5.078125 -10.09375 C 5.078125 -10 5.125 -9.953125 5.21875 -9.953125 L 8.46875 -9.953125 C 8.570312 -9.953125 8.65625 -9.921875 8.71875 -9.859375 C 8.78125 -9.804688 8.8125 -9.722656 8.8125 -9.609375 L 8.8125 -6.625 C 8.8125 -6.519531 8.78125 -6.4375 8.71875 -6.375 C 8.65625 -6.3125 8.570312 -6.28125 8.46875 -6.28125 L 5.21875 -6.28125 C 5.125 -6.28125 5.078125 -6.234375 5.078125 -6.140625 L 5.078125 -3.84375 C 5.078125 -3.75 5.125 -3.703125 5.21875 -3.703125 L 10.828125 -3.703125 C 10.941406 -3.703125 11.023438 -3.671875 11.078125 -3.609375 C 11.140625 -3.546875 11.171875 -3.460938 11.171875 -3.359375 L 11.171875 -0.34375 C 11.171875 -0.238281 11.140625 -0.15625 11.078125 -0.09375 C 11.023438 -0.03125 10.941406 0 10.828125 0 L 1.109375 0 C 0.992188 0 0.90625 -0.03125 0.84375 -0.09375 C 0.789062 -0.15625 0.765625 -0.238281 0.765625 -0.34375 L 0.765625 -15.75 C 0.765625 -15.863281 0.789062 -15.945312 0.84375 -16 C 0.90625 -16.0625 0.992188 -16.09375 1.109375 -16.09375 L 10.828125 -16.09375 C 10.941406 -16.09375 11.023438 -16.0625 11.078125 -16 C 11.140625 -15.945312 11.171875 -15.863281 11.171875 -15.75 Z M 11.171875 -12.734375 "/></g></g></g><g fill="#ffffff" fill-opacity="1"><g transform="translate(173.852232, 232.29022)"><g><path d="M 8.609375 -15.75 C 8.609375 -15.863281 8.632812 -15.945312 8.6875 -16 C 8.75 -16.0625 8.835938 -16.09375 8.953125 -16.09375 L 12.5625 -16.09375 C 12.664062 -16.09375 12.75 -16.0625 12.8125 -16 C 12.875 -15.945312 12.90625 -15.863281 12.90625 -15.75 L 12.90625 -0.34375 C 12.90625 -0.238281 12.875 -0.15625 12.8125 -0.09375 C 12.75 -0.03125 12.664062 0 12.5625 0 L 8.765625 0 C 8.566406 0 8.4375 -0.0820312 8.375 -0.25 L 5.171875 -7.75 C 5.160156 -7.8125 5.128906 -7.84375 5.078125 -7.84375 C 5.035156 -7.84375 5.015625 -7.804688 5.015625 -7.734375 L 5.0625 -0.34375 C 5.0625 -0.238281 5.03125 -0.15625 4.96875 -0.09375 C 4.90625 -0.03125 4.820312 0 4.71875 0 L 1.109375 0 C 0.992188 0 0.90625 -0.03125 0.84375 -0.09375 C 0.789062 -0.15625 0.765625 -0.238281 0.765625 -0.34375 L 0.765625 -15.75 C 0.765625 -15.863281 0.789062 -15.945312 0.84375 -16 C 0.90625 -16.0625 0.992188 -16.09375 1.109375 -16.09375 L 4.875 -16.09375 C 5.070312 -16.09375 5.203125 -16.007812 5.265625 -15.84375 L 8.46875 -8.34375 C 8.476562 -8.28125 8.503906 -8.253906 8.546875 -8.265625 C 8.597656 -8.273438 8.625 -8.316406 8.625 -8.390625 Z M 8.609375 -15.75 "/></g></g></g><g fill="#ffffff" fill-opacity="1"><g transform="translate(187.486642, 232.29022)"><g><path d="M 9.78125 0 C 9.5625 0 9.429688 -0.0976562 9.390625 -0.296875 L 9 -2.0625 C 8.96875 -2.144531 8.921875 -2.1875 8.859375 -2.1875 L 5.40625 -2.1875 C 5.34375 -2.1875 5.296875 -2.144531 5.265625 -2.0625 L 4.90625 -0.296875 C 4.851562 -0.0976562 4.722656 0 4.515625 0 L 0.734375 0 C 0.609375 0 0.519531 -0.03125 0.46875 -0.09375 C 0.414062 -0.164062 0.40625 -0.265625 0.4375 -0.390625 L 4.53125 -15.796875 C 4.570312 -15.992188 4.695312 -16.09375 4.90625 -16.09375 L 9.453125 -16.09375 C 9.648438 -16.09375 9.773438 -15.992188 9.828125 -15.796875 L 13.890625 -0.390625 C 13.910156 -0.359375 13.921875 -0.320312 13.921875 -0.28125 C 13.921875 -0.09375 13.8125 0 13.59375 0 Z M 6 -5.609375 C 6 -5.535156 6.046875 -5.5 6.140625 -5.5 L 8.09375 -5.5 C 8.195312 -5.5 8.242188 -5.550781 8.234375 -5.65625 L 7.203125 -10.4375 C 7.179688 -10.5 7.144531 -10.53125 7.09375 -10.53125 C 7.050781 -10.53125 7.023438 -10.5 7.015625 -10.4375 L 6 -5.65625 Z M 6 -5.609375 "/></g></g></g><g fill="#ffffff" fill-opacity="1"><g transform="translate(201.81081, 232.29022)"><g/></g></g><g fill="#ffffff" fill-opacity="1"><g transform="translate(206.409263, 232.29022)"><g><path d="M 8.140625 0 C 7.941406 0 7.8125 -0.09375 7.75 -0.28125 L 5.796875 -6.078125 C 5.773438 -6.148438 5.722656 -6.1875 5.640625 -6.1875 L 5.21875 -6.1875 C 5.125 -6.1875 5.078125 -6.140625 5.078125 -6.046875 L 5.078125 -0.34375 C 5.078125 -0.238281 5.046875 -0.15625 4.984375 -0.09375 C 4.929688 -0.03125 4.847656 0 4.734375 0 L 1.109375 0 C 0.992188 0 0.90625 -0.03125 0.84375 -0.09375 C 0.789062 -0.15625 0.765625 -0.238281 0.765625 -0.34375 L 0.765625 -15.75 C 0.765625 -15.863281 0.789062 -15.945312 0.84375 -16 C 0.90625 -16.0625 0.992188 -16.09375 1.109375 -16.09375 L 7.171875 -16.09375 C 8.148438 -16.09375 9.015625 -15.878906 9.765625 -15.453125 C 10.523438 -15.023438 11.109375 -14.421875 11.515625 -13.640625 C 11.929688 -12.867188 12.140625 -11.976562 12.140625 -10.96875 C 12.140625 -10.03125 11.941406 -9.203125 11.546875 -8.484375 C 11.160156 -7.773438 10.613281 -7.222656 9.90625 -6.828125 C 9.851562 -6.785156 9.832031 -6.722656 9.84375 -6.640625 L 12.21875 -0.390625 C 12.226562 -0.347656 12.234375 -0.296875 12.234375 -0.234375 C 12.234375 -0.078125 12.132812 0 11.9375 0 Z M 5.21875 -12.390625 C 5.125 -12.390625 5.078125 -12.347656 5.078125 -12.265625 L 5.078125 -9.609375 C 5.078125 -9.515625 5.125 -9.46875 5.21875 -9.46875 L 6.4375 -9.46875 C 6.851562 -9.46875 7.191406 -9.597656 7.453125 -9.859375 C 7.710938 -10.128906 7.84375 -10.484375 7.84375 -10.921875 C 7.84375 -11.378906 7.710938 -11.738281 7.453125 -12 C 7.203125 -12.257812 6.863281 -12.390625 6.4375 -12.390625 Z M 5.21875 -12.390625 "/></g></g></g><g fill="#ffffff" fill-opacity="1"><g transform="translate(219.12398, 232.29022)"><g><path d="M 6.34375 0.234375 C 5.195312 0.234375 4.1875 0.00390625 3.3125 -0.453125 C 2.4375 -0.921875 1.757812 -1.570312 1.28125 -2.40625 C 0.8125 -3.238281 0.578125 -4.207031 0.578125 -5.3125 L 0.578125 -10.78125 C 0.578125 -11.882812 0.8125 -12.847656 1.28125 -13.671875 C 1.757812 -14.503906 2.4375 -15.144531 3.3125 -15.59375 C 4.1875 -16.050781 5.195312 -16.28125 6.34375 -16.28125 C 7.5 -16.28125 8.515625 -16.050781 9.390625 -15.59375 C 10.273438 -15.144531 10.953125 -14.503906 11.421875 -13.671875 C 11.898438 -12.847656 12.140625 -11.882812 12.140625 -10.78125 L 12.140625 -5.3125 C 12.140625 -4.207031 11.894531 -3.238281 11.40625 -2.40625 C 10.925781 -1.570312 10.25 -0.921875 9.375 -0.453125 C 8.507812 0.00390625 7.5 0.234375 6.34375 0.234375 Z M 6.34375 -3.46875 C 6.789062 -3.46875 7.144531 -3.617188 7.40625 -3.921875 C 7.675781 -4.234375 7.8125 -4.644531 7.8125 -5.15625 L 7.8125 -10.90625 C 7.8125 -11.40625 7.675781 -11.804688 7.40625 -12.109375 C 7.144531 -12.421875 6.789062 -12.578125 6.34375 -12.578125 C 5.914062 -12.578125 5.566406 -12.421875 5.296875 -12.109375 C 5.035156 -11.804688 4.90625 -11.40625 4.90625 -10.90625 L 4.90625 -5.15625 C 4.90625 -4.644531 5.035156 -4.234375 5.296875 -3.921875 C 5.566406 -3.617188 5.914062 -3.46875 6.34375 -3.46875 Z M 6.34375 -3.46875 "/></g></g></g><g fill="#ffffff" fill-opacity="1"><g transform="translate(231.838697, 232.29022)"><g><path d="M 11.828125 -16.09375 C 11.929688 -16.09375 12.015625 -16.0625 12.078125 -16 C 12.140625 -15.945312 12.171875 -15.863281 12.171875 -15.75 L 12.171875 -12.734375 C 12.171875 -12.628906 12.140625 -12.546875 12.078125 -12.484375 C 12.015625 -12.421875 11.929688 -12.390625 11.828125 -12.390625 L 8.5625 -12.390625 C 8.46875 -12.390625 8.421875 -12.347656 8.421875 -12.265625 L 8.421875 -0.34375 C 8.421875 -0.238281 8.390625 -0.15625 8.328125 -0.09375 C 8.265625 -0.03125 8.179688 0 8.078125 0 L 4.4375 0 C 4.332031 0 4.25 -0.03125 4.1875 -0.09375 C 4.125 -0.15625 4.09375 -0.238281 4.09375 -0.34375 L 4.09375 -12.265625 C 4.09375 -12.347656 4.046875 -12.390625 3.953125 -12.390625 L 0.765625 -12.390625 C 0.648438 -12.390625 0.5625 -12.421875 0.5 -12.484375 C 0.4375 -12.546875 0.40625 -12.628906 0.40625 -12.734375 L 0.40625 -15.75 C 0.40625 -15.863281 0.4375 -15.945312 0.5 -16 C 0.5625 -16.0625 0.648438 -16.09375 0.765625 -16.09375 Z M 11.828125 -16.09375 "/></g></g></g><g fill="#ffffff" fill-opacity="1"><g transform="translate(244.415456, 232.29022)"><g><path d="M 9.78125 0 C 9.5625 0 9.429688 -0.0976562 9.390625 -0.296875 L 9 -2.0625 C 8.96875 -2.144531 8.921875 -2.1875 8.859375 -2.1875 L 5.40625 -2.1875 C 5.34375 -2.1875 5.296875 -2.144531 5.265625 -2.0625 L 4.90625 -0.296875 C 4.851562 -0.0976562 4.722656 0 4.515625 0 L 0.734375 0 C 0.609375 0 0.519531 -0.03125 0.46875 -0.09375 C 0.414062 -0.164062 0.40625 -0.265625 0.4375 -0.390625 L 4.53125 -15.796875 C 4.570312 -15.992188 4.695312 -16.09375 4.90625 -16.09375 L 9.453125 -16.09375 C 9.648438 -16.09375 9.773438 -15.992188 9.828125 -15.796875 L 13.890625 -0.390625 C 13.910156 -0.359375 13.921875 -0.320312 13.921875 -0.28125 C 13.921875 -0.09375 13.8125 0 13.59375 0 Z M 6 -5.609375 C 6 -5.535156 6.046875 -5.5 6.140625 -5.5 L 8.09375 -5.5 C 8.195312 -5.5 8.242188 -5.550781 8.234375 -5.65625 L 7.203125 -10.4375 C 7.179688 -10.5 7.144531 -10.53125 7.09375 -10.53125 C 7.050781 -10.53125 7.023438 -10.5 7.015625 -10.4375 L 6 -5.65625 Z M 6 -5.609375 "/></g></g></g><g fill="#ffffff" fill-opacity="1"><g transform="translate(258.739624, 232.29022)"><g><path d="M 8.140625 0 C 7.941406 0 7.8125 -0.09375 7.75 -0.28125 L 5.796875 -6.078125 C 5.773438 -6.148438 5.722656 -6.1875 5.640625 -6.1875 L 5.21875 -6.1875 C 5.125 -6.1875 5.078125 -6.140625 5.078125 -6.046875 L 5.078125 -0.34375 C 5.078125 -0.238281 5.046875 -0.15625 4.984375 -0.09375 C 4.929688 -0.03125 4.847656 0 4.734375 0 L 1.109375 0 C 0.992188 0 0.90625 -0.03125 0.84375 -0.09375 C 0.789062 -0.15625 0.765625 -0.238281 0.765625 -0.34375 L 0.765625 -15.75 C 0.765625 -15.863281 0.789062 -15.945312 0.84375 -16 C 0.90625 -16.0625 0.992188 -16.09375 1.109375 -16.09375 L 7.171875 -16.09375 C 8.148438 -16.09375 9.015625 -15.878906 9.765625 -15.453125 C 10.523438 -15.023438 11.109375 -14.421875 11.515625 -13.640625 C 11.929688 -12.867188 12.140625 -11.976562 12.140625 -10.96875 C 12.140625 -10.03125 11.941406 -9.203125 11.546875 -8.484375 C 11.160156 -7.773438 10.613281 -7.222656 9.90625 -6.828125 C 9.851562 -6.785156 9.832031 -6.722656 9.84375 -6.640625 L 12.21875 -0.390625 C 12.226562 -0.347656 12.234375 -0.296875 12.234375 -0.234375 C 12.234375 -0.078125 12.132812 0 11.9375 0 Z M 5.21875 -12.390625 C 5.125 -12.390625 5.078125 -12.347656 5.078125 -12.265625 L 5.078125 -9.609375 C 5.078125 -9.515625 5.125 -9.46875 5.21875 -9.46875 L 6.4375 -9.46875 C 6.851562 -9.46875 7.191406 -9.597656 7.453125 -9.859375 C 7.710938 -10.128906 7.84375 -10.484375 7.84375 -10.921875 C 7.84375 -11.378906 7.710938 -11.738281 7.453125 -12 C 7.203125 -12.257812 6.863281 -12.390625 6.4375 -12.390625 Z M 5.21875 -12.390625 "/></g></g></g><g fill="#ffffff" fill-opacity="1"><g transform="translate(271.45434, 232.29022)"><g><path d="M 1.109375 0 C 0.992188 0 0.90625 -0.03125 0.84375 -0.09375 C 0.789062 -0.15625 0.765625 -0.238281 0.765625 -0.34375 L 0.765625 -15.75 C 0.765625 -15.863281 0.789062 -15.945312 0.84375 -16 C 0.90625 -16.0625 0.992188 -16.09375 1.109375 -16.09375 L 4.734375 -16.09375 C 4.847656 -16.09375 4.929688 -16.0625 4.984375 -16 C 5.046875 -15.945312 5.078125 -15.863281 5.078125 -15.75 L 5.078125 -0.34375 C 5.078125 -0.238281 5.046875 -0.15625 4.984375 -0.09375 C 4.929688 -0.03125 4.847656 0 4.734375 0 Z M 1.109375 0 "/></g></g></g><g fill="#ffa500" fill-opacity="1"><g transform="translate(154.488884, 246.990188)"><g><path d="M 8.5625 0 L 6.734375 0 L 5.4375 -4.84375 L 4.125 0 L 2.28125 0 L -0.015625 -7 L 1.890625 -7 L 3.265625 -1.84375 L 4.59375 -7 L 6.34375 -7 L 7.703125 -1.84375 L 9.0625 -7 L 10.875 -7 Z M 8.5625 0 "/></g></g></g><g fill="#ffa500" fill-opacity="1"><g transform="translate(167.294619, 246.990188)"><g><path d="M 6.1875 -5.59375 L 2.484375 -5.59375 L 2.484375 -4.203125 L 5.8125 -4.203125 L 5.8125 -2.8125 L 2.484375 -2.8125 L 2.484375 -1.40625 L 6.296875 -1.40625 L 6.296875 0 L 0.703125 0 L 0.703125 -7 L 6.1875 -7 Z M 6.1875 -5.59375 "/></g></g></g><g fill="#ffa500" fill-opacity="1"><g transform="translate(176.031956, 246.990188)"><g><path d="M 0.703125 -7 L 4.015625 -7 C 4.796875 -7 5.414062 -6.835938 5.875 -6.515625 C 6.34375 -6.203125 6.578125 -5.78125 6.578125 -5.25 C 6.578125 -4.882812 6.46875 -4.5625 6.25 -4.28125 C 6.039062 -4.007812 5.75 -3.816406 5.375 -3.703125 C 5.820312 -3.617188 6.171875 -3.414062 6.421875 -3.09375 C 6.679688 -2.78125 6.8125 -2.394531 6.8125 -1.9375 C 6.8125 -1.34375 6.570312 -0.867188 6.09375 -0.515625 C 5.613281 -0.171875 4.957031 0 4.125 0 L 0.703125 0 Z M 2.46875 -5.640625 L 2.46875 -4.203125 L 3.90625 -4.203125 C 4.164062 -4.203125 4.375 -4.265625 4.53125 -4.390625 C 4.6875 -4.523438 4.765625 -4.707031 4.765625 -4.9375 C 4.765625 -5.15625 4.6875 -5.328125 4.53125 -5.453125 C 4.375 -5.578125 4.164062 -5.640625 3.90625 -5.640625 Z M 2.46875 -2.921875 L 2.46875 -1.375 L 3.90625 -1.375 C 4.238281 -1.375 4.5 -1.441406 4.6875 -1.578125 C 4.882812 -1.722656 4.984375 -1.914062 4.984375 -2.15625 C 4.984375 -2.394531 4.882812 -2.582031 4.6875 -2.71875 C 4.5 -2.851562 4.238281 -2.921875 3.90625 -2.921875 Z M 2.46875 -2.921875 "/></g></g></g><g fill="#ffa500" fill-opacity="1"><g transform="translate(185.17913, 246.990188)"><g/></g></g><g fill="#ffa500" fill-opacity="1"><g transform="translate(189.498213, 246.990188)"><g><path d="M 0.703125 -7 L 3.703125 -7 C 4.804688 -7 5.703125 -6.675781 6.390625 -6.03125 C 7.085938 -5.382812 7.4375 -4.539062 7.4375 -3.5 C 7.4375 -2.46875 7.082031 -1.625 6.375 -0.96875 C 5.675781 -0.320312 4.765625 0 3.640625 0 L 0.703125 0 Z M 2.484375 -5.578125 L 2.484375 -1.421875 L 3.75 -1.421875 C 4.289062 -1.421875 4.738281 -1.609375 5.09375 -1.984375 C 5.445312 -2.367188 5.625 -2.867188 5.625 -3.484375 C 5.625 -4.097656 5.4375 -4.597656 5.0625 -4.984375 C 4.695312 -5.378906 4.234375 -5.578125 3.671875 -5.578125 Z M 2.484375 -5.578125 "/></g></g></g><g fill="#ffa500" fill-opacity="1"><g transform="translate(199.165188, 246.990188)"><g><path d="M 6.1875 -5.59375 L 2.484375 -5.59375 L 2.484375 -4.203125 L 5.8125 -4.203125 L 5.8125 -2.8125 L 2.484375 -2.8125 L 2.484375 -1.40625 L 6.296875 -1.40625 L 6.296875 0 L 0.703125 0 L 0.703125 -7 L 6.1875 -7 Z M 6.1875 -5.59375 "/></g></g></g><g fill="#ffa500" fill-opacity="1"><g transform="translate(207.902525, 246.990188)"><g><path d="M 4.546875 0 L 2.703125 0 L -0.015625 -7 L 1.890625 -7 L 3.6875 -1.84375 L 5.46875 -7 L 7.296875 -7 Z M 4.546875 0 "/></g></g></g><g fill="#ffa500" fill-opacity="1"><g transform="translate(217.189651, 246.990188)"><g><path d="M 6.1875 -5.59375 L 2.484375 -5.59375 L 2.484375 -4.203125 L 5.8125 -4.203125 L 5.8125 -2.8125 L 2.484375 -2.8125 L 2.484375 -1.40625 L 6.296875 -1.40625 L 6.296875 0 L 0.703125 0 L 0.703125 -7 L 6.1875 -7 Z M 6.1875 -5.59375 "/></g></g></g><g fill="#ffa500" fill-opacity="1"><g transform="translate(225.926986, 246.990188)"><g><path d="M 2.484375 -1.484375 L 5.453125 -1.484375 L 5.453125 0 L 0.703125 0 L 0.703125 -7 L 2.484375 -7 Z M 2.484375 -1.484375 "/></g></g></g><g fill="#ffa500" fill-opacity="1"><g transform="translate(233.524775, 246.990188)"><g><path d="M 4.015625 -7.0625 C 5.109375 -7.0625 6.015625 -6.722656 6.734375 -6.046875 C 7.453125 -5.367188 7.8125 -4.523438 7.8125 -3.515625 C 7.8125 -2.492188 7.445312 -1.640625 6.71875 -0.953125 C 6 -0.265625 5.097656 0.078125 4.015625 0.078125 C 2.941406 0.078125 2.039062 -0.257812 1.3125 -0.9375 C 0.59375 -1.625 0.234375 -2.484375 0.234375 -3.515625 C 0.234375 -4.535156 0.59375 -5.378906 1.3125 -6.046875 C 2.039062 -6.722656 2.941406 -7.0625 4.015625 -7.0625 Z M 4.046875 -5.5625 C 3.492188 -5.5625 3.023438 -5.363281 2.640625 -4.96875 C 2.253906 -4.570312 2.0625 -4.082031 2.0625 -3.5 C 2.0625 -2.914062 2.253906 -2.421875 2.640625 -2.015625 C 3.035156 -1.609375 3.5 -1.40625 4.03125 -1.40625 C 4.570312 -1.40625 5.03125 -1.609375 5.40625 -2.015625 C 5.789062 -2.421875 5.984375 -2.914062 5.984375 -3.5 C 5.984375 -4.082031 5.789062 -4.570312 5.40625 -4.96875 C 5.03125 -5.363281 4.578125 -5.5625 4.046875 -5.5625 Z M 4.046875 -5.5625 "/></g></g></g><g fill="#ffa500" fill-opacity="1"><g transform="translate(243.571589, 246.990188)"><g><path d="M 0.703125 -7 L 3.75 -7 C 4.644531 -7 5.335938 -6.785156 5.828125 -6.359375 C 6.316406 -5.941406 6.5625 -5.34375 6.5625 -4.5625 C 6.5625 -3.738281 6.316406 -3.097656 5.828125 -2.640625 C 5.335938 -2.191406 4.644531 -1.96875 3.75 -1.96875 L 2.484375 -1.96875 L 2.484375 0 L 0.703125 0 Z M 2.484375 -5.59375 L 2.484375 -3.375 L 3.65625 -3.375 C 4.050781 -3.375 4.351562 -3.46875 4.5625 -3.65625 C 4.78125 -3.851562 4.890625 -4.132812 4.890625 -4.5 C 4.890625 -4.863281 4.78125 -5.132812 4.5625 -5.3125 C 4.351562 -5.5 4.050781 -5.59375 3.65625 -5.59375 Z M 2.484375 -5.59375 "/></g></g></g><g fill="#ffa500" fill-opacity="1"><g transform="translate(252.368902, 246.990188)"><g><path d="M 6.1875 -5.59375 L 2.484375 -5.59375 L 2.484375 -4.203125 L 5.8125 -4.203125 L 5.8125 -2.8125 L 2.484375 -2.8125 L 2.484375 -1.40625 L 6.296875 -1.40625 L 6.296875 0 L 0.703125 0 L 0.703125 -7 L 6.1875 -7 Z M 6.1875 -5.59375 "/></g></g></g><g fill="#ffa500" fill-opacity="1"><g transform="translate(261.106236, 246.990188)"><g><path d="M 4.921875 0 L 3.875 -1.96875 L 2.484375 -1.96875 L 2.484375 0 L 0.703125 0 L 0.703125 -7 L 3.828125 -7 C 4.753906 -7 5.46875 -6.785156 5.96875 -6.359375 C 6.476562 -5.941406 6.734375 -5.34375 6.734375 -4.5625 C 6.734375 -3.476562 6.3125 -2.726562 5.46875 -2.3125 L 6.9375 0 Z M 2.484375 -3.375 L 3.828125 -3.375 C 4.210938 -3.375 4.507812 -3.46875 4.71875 -3.65625 C 4.9375 -3.851562 5.046875 -4.132812 5.046875 -4.5 C 5.046875 -4.863281 4.9375 -5.132812 4.71875 -5.3125 C 4.507812 -5.5 4.210938 -5.59375 3.828125 -5.59375 L 2.484375 -5.59375 Z M 2.484375 -3.375 "/></g></g></g></svg>